<svg width="213" height="150" xmlns="http://www.w3.org/2000/svg">

 <g>
  <title>background</title>
  <rect fill="none" id="canvas_background" height="152" width="215" y="-1" x="-1"/>
 </g>
 <g>
  <title>Layer 1</title>
  <g stroke="null" id="svg_1">
   <g stroke="null" id="svg_2">
    <g stroke="null" id="svg_3">
     <path stroke="null" id="svg_4" fill="#ffffff" class="active-path" d="m73.69525,46.79882l-11.79492,0c-1.60179,0 -2.90039,1.2986 -2.90039,2.90039s1.2986,2.90039 2.90039,2.90039l11.79492,0c1.60179,0 2.90039,-1.2986 2.90039,-2.90039s-1.2986,-2.90039 -2.90039,-2.90039z"/>
    </g>
   </g>
   <g stroke="null" id="svg_5">
    <g stroke="null" id="svg_6">
     <path stroke="null" id="svg_7" fill="#ffffff" class="active-path" d="m149.10539,46.79882l-11.60156,0c-1.60179,0 -2.90039,1.2986 -2.90039,2.90039s1.2986,2.90039 2.90039,2.90039l11.60156,0c1.60179,0 2.90039,-1.2986 2.90039,-2.90039s-1.2986,-2.90039 -2.90039,-2.90039z"/>
    </g>
   </g>
   <g stroke="null" id="svg_8">
    <g stroke="null" id="svg_9">
     <path stroke="null" id="svg_10" fill="#ffffff" class="active-path" d="m138.41378,16.88516c-1.13251,-1.1327 -2.96903,-1.1327 -4.10173,0l-8.20346,8.20346c-1.1327,1.1327 -1.1327,2.96903 0,4.10173c1.13251,1.1327 2.96903,1.13289 4.10173,0l8.20346,-8.20346c1.1327,-1.13289 1.1327,-2.96923 0,-4.10173z"/>
    </g>
   </g>
   <g stroke="null" id="svg_11">
    <g stroke="null" id="svg_12">
     <path stroke="null" id="svg_13" fill="#ffffff" class="active-path" d="m85.09069,25.08863l-8.20366,-8.20346c-1.13251,-1.13289 -2.96903,-1.13289 -4.10154,0c-1.1327,1.1327 -1.1327,2.96903 0,4.10173l8.20346,8.20346c1.13251,1.1327 2.96903,1.13289 4.10173,0c1.1327,-1.1327 1.1327,-2.96903 0,-4.10173z"/>
    </g>
   </g>
   <g stroke="null" id="svg_14">
    <g stroke="null" id="svg_15">
     <path stroke="null" id="svg_16" fill="#ffffff" class="active-path" d="m105.59954,6c-1.60179,0 -2.90039,1.2986 -2.90039,2.90039l0,11.79492c0,1.60179 1.2986,2.90039 2.90039,2.90039s2.90039,-1.2986 2.90039,-2.90039l0,-11.79492c0,-1.60179 -1.2986,-2.90039 -2.90039,-2.90039z"/>
    </g>
   </g>
   <g stroke="null" id="svg_17">
    <g stroke="null" id="svg_18">
     <path stroke="null" id="svg_19" fill="#ffffff" class="active-path" d="m157.49487,100.46397l-29.24289,-42.82716c0.36487,-1.64723 0.55069,-3.33526 0.55069,-5.0372c0,-12.7942 -10.40892,-23.20312 -23.20312,-23.20312s-23.20312,10.40892 -23.20312,23.20312c0,5.02831 1.58226,9.81318 4.57585,13.83737c2.17046,2.9176 4.93453,5.24294 8.11413,6.85478l-7.54063,11.31075l-5.72943,-7.63963c-0.5474,-0.72974 -1.40611,-1.15958 -2.31838,-1.16016c-0.00058,0 -0.00116,0 -0.00193,0c-0.9115,0 -1.77001,0.42848 -2.31799,1.15706l-17.5957,23.39648c-0.66071,0.87843 -0.76802,2.05502 -0.27708,3.03864c0.49094,0.98362 1.49583,1.60508 2.59508,1.60508c2.7778,0 90.43068,0 93.1992,0c1.07546,0 2.06256,-0.59516 2.56472,-1.5461c0.50215,-0.95094 0.43699,-2.10182 -0.16938,-2.98992zm-69.29767,-47.86436c0,-9.59565 7.80669,-17.40234 17.40234,-17.40234c8.55808,0 15.69266,6.20974 17.1357,14.36002l-0.23841,-0.34921c-0.54063,-0.79181 -1.43724,-1.26496 -2.39514,-1.26496c-0.00541,0 -0.01083,0 -0.01624,0c-0.96409,0.00541 -1.86244,0.48939 -2.39708,1.29164l-11.70926,17.56496l-0.86238,-1.30073c-0.53657,-0.8094 -1.44246,-1.29647 -2.4137,-1.29763c-0.00116,0 -0.00232,0 -0.00367,0c-0.9697,0 -1.87539,0.48456 -2.41312,1.29145l-1.95235,2.92843c-6.14109,-2.80545 -10.13667,-8.9216 -10.13667,-15.82163zm-20.48642,46.5996l11.78216,-15.66636l5.87213,7.82951c0.5648,0.75313 1.46122,1.18452 2.40075,1.159c0.94089,-0.0261 1.81062,-0.50718 2.33288,-1.29029l12.59388,-18.89063l17.80685,26.85877l-52.78865,0zm59.74862,0l-18.00427,-27.15635l10.67518,-16.01363c2.16775,3.17477 27.94893,40.93243 29.47686,43.16999l-22.14777,0z"/>
    </g>
   </g>
  </g>
  <text stroke="#000" transform="matrix(0.9050695368846746,0,0,1.6090331996315603,10.190879782990383,-110.76944961834485) " font-weight="bold" xml:space="preserve" text-anchor="start" font-family="Georgia, Times, 'Times New Roman', serif" font-size="32" id="svg_20" y="157.09094" x="5.67992" stroke-width="0" fill="#ffffff">Muntzoman</text>
 </g>
</svg>