<svg width="163" height="166" xmlns="http://www.w3.org/2000/svg">

 <g>
  <title>background</title>
  <rect fill="none" id="canvas_background" height="168" width="165" y="-1" x="-1"/>
 </g>
 <g>
  <title>Layer 1</title>
  <g stroke="null" id="svg_1">
   <g stroke="null" id="svg_2">
    <g stroke="null" id="svg_3">
     <path stroke="null" id="svg_4" fill="#FFFFFF" class="active-path" d="m33.44526,54.98632l-15.60742,0c-2.11954,0 -3.83789,1.71835 -3.83789,3.83789s1.71835,3.83789 3.83789,3.83789l15.60742,0c2.11954,0 3.83789,-1.71835 3.83789,-3.83789s-1.71835,-3.83789 -3.83789,-3.83789z"/>
    </g>
   </g>
   <g stroke="null" id="svg_5">
    <g stroke="null" id="svg_6">
     <path stroke="null" id="svg_7" fill="#FFFFFF" class="active-path" d="m133.2304,54.98632l-15.35156,0c-2.11954,0 -3.83789,1.71835 -3.83789,3.83789s1.71835,3.83789 3.83789,3.83789l15.35156,0c2.11954,0 3.83789,-1.71835 3.83789,-3.83789s-1.71835,-3.83789 -3.83789,-3.83789z"/>
    </g>
   </g>
   <g stroke="null" id="svg_8">
    <g stroke="null" id="svg_9">
     <path stroke="null" id="svg_10" fill="#FFFFFF" class="active-path" d="m119.08291,15.4036c-1.49857,-1.49882 -3.92872,-1.49882 -5.42754,0l-10.85509,10.85509c-1.49882,1.49882 -1.49882,3.92872 0,5.42754c1.49857,1.49882 3.92872,1.49908 5.42754,0l10.85509,-10.85509c1.49882,-1.49908 1.49882,-3.92898 0,-5.42754z"/>
    </g>
   </g>
   <g stroke="null" id="svg_11">
    <g stroke="null" id="svg_12">
     <path stroke="null" id="svg_13" fill="#FFFFFF" class="active-path" d="m48.52407,26.25869l-10.85534,-10.85509c-1.49857,-1.49908 -3.92872,-1.49908 -5.42729,0c-1.49882,1.49882 -1.49882,3.92872 0,5.42754l10.85509,10.85509c1.49857,1.49882 3.92872,1.49908 5.42754,0c1.49882,-1.49882 1.49882,-3.92872 0,-5.42754z"/>
    </g>
   </g>
   <g stroke="null" id="svg_14">
    <g stroke="null" id="svg_15">
     <path stroke="null" id="svg_16" fill="#FFFFFF" class="active-path" d="m75.66205,1c-2.11954,0 -3.83789,1.71835 -3.83789,3.83789l0,15.60742c0,2.11954 1.71835,3.83789 3.83789,3.83789s3.83789,-1.71835 3.83789,-3.83789l0,-15.60742c0,-2.11954 -1.71835,-3.83789 -3.83789,-3.83789z"/>
    </g>
   </g>
   <g stroke="null" id="svg_17">
    <g stroke="null" id="svg_18">
     <path stroke="null" id="svg_19" fill="#FFFFFF" class="active-path" d="m144.33162,125.99778l-38.69514,-56.67029c0.48281,-2.17967 0.72869,-4.41332 0.72869,-6.66539c0,-16.9297 -13.77342,-30.70312 -30.70312,-30.70312s-30.70312,13.77342 -30.70312,30.70312c0,6.65362 2.0937,12.98512 6.05491,18.31006c2.87202,3.86066 6.52953,6.93763 10.73688,9.07047l-9.978,14.96675l-7.58137,-10.109c-0.72434,-0.96561 -1.86061,-1.53439 -3.06775,-1.53516c-0.00077,0 -0.00154,0 -0.00256,0c-1.20612,0 -2.34214,0.56698 -3.06724,1.53106l-23.2832,30.95898c-0.87427,1.16237 -1.01627,2.71927 -0.36665,4.02083c0.64963,1.30156 1.97933,2.12389 3.43389,2.12389c3.67568,0 119.66081,0 123.3242,0c1.42309,0 2.72925,-0.78754 3.39372,-2.04585c0.66447,-1.25832 0.57824,-2.78119 -0.22413,-3.95635zm-91.69692,-63.33568c0,-12.69728 10.33007,-23.02734 23.02734,-23.02734c11.32433,0 20.76503,8.21692 22.67451,19.00165l-0.31547,-0.46208c-0.71538,-1.04774 -1.9018,-1.67383 -3.16933,-1.67383c-0.00716,0 -0.01433,0 -0.02149,0c-1.27571,0.00716 -2.46444,0.64758 -3.17189,1.70914l-15.49407,23.24252l-1.14113,-1.72117c-0.71001,-1.07103 -1.90871,-1.71554 -3.19389,-1.71707c-0.00154,0 -0.00307,0 -0.00486,0c-1.28313,0 -2.48158,0.64118 -3.19312,1.70888l-2.58341,3.87499c-8.12609,-3.71226 -13.41317,-11.80535 -13.41317,-20.93569zm-27.1083,61.6621l15.59053,-20.73024l7.77019,10.36026c0.74737,0.99657 1.93353,1.56739 3.17675,1.53362c1.24501,-0.03454 2.39587,-0.67112 3.08694,-1.70735l16.66463,-24.99669l23.5626,35.5404l-69.85165,0zm79.06131,0l-23.82383,-35.93417l14.12574,-21.18976c2.86844,4.20095 36.98293,54.16312 39.00473,57.12392l-29.30664,0z"/>
    </g>
   </g>
  </g>
  <text font-weight="bold" xml:space="preserve" text-anchor="start" font-family="Georgia, Times, 'Times New Roman', serif" font-size="24" id="svg_20" y="159.05" x="3.5" stroke-width="0" stroke="#000" fill="#ffffff">Muntzoman</text>
 </g>
</svg>